<svg width="30" height="30" viewBox="0 0 30 30" fill="none" xmlns="http://www.w3.org/2000/svg">
<g clip-path="url(#clip0_144_959)">
<path fill-rule="evenodd" clip-rule="evenodd" d="M30 15C30 18.9782 28.4196 22.7936 25.6066 25.6066C22.7936 28.4196 18.9782 30 15 30C11.0218 30 7.20644 28.4196 4.3934 25.6066C1.58035 22.7936 0 18.9782 0 15C0 11.0218 1.58035 7.20644 4.3934 4.3934C7.20644 1.58035 11.0218 0 15 0C18.9782 0 22.7936 1.58035 25.6066 4.3934C28.4196 7.20644 30 11.0218 30 15ZM21.5625 15.9375C21.8111 15.9375 22.0496 15.8387 22.2254 15.6629C22.4012 15.4871 22.5 15.2486 22.5 15C22.5 14.7514 22.4012 14.5129 22.2254 14.3371C22.0496 14.1613 21.8111 14.0625 21.5625 14.0625H10.7006L14.7263 10.0388C14.9023 9.86271 15.0012 9.62395 15.0012 9.375C15.0012 9.12605 14.9023 8.88729 14.7263 8.71125C14.5502 8.53521 14.3115 8.43632 14.0625 8.43632C13.8135 8.43632 13.5748 8.53521 13.3988 8.71125L7.77375 14.3363C7.68644 14.4233 7.61718 14.5268 7.56991 14.6407C7.52265 14.7546 7.49832 14.8767 7.49832 15C7.49832 15.1233 7.52265 15.2454 7.56991 15.3593C7.61718 15.4732 7.68644 15.5767 7.77375 15.6638L13.3988 21.2888C13.5748 21.4648 13.8135 21.5637 14.0625 21.5637C14.3115 21.5637 14.5502 21.4648 14.7263 21.2888C14.9023 21.1127 15.0012 20.874 15.0012 20.625C15.0012 20.376 14.9023 20.1373 14.7263 19.9613L10.7006 15.9375H21.5625Z" fill="#106EE8"/>
<path d="M21.5625 15.9375C21.8111 15.9375 22.0496 15.8387 22.2254 15.6629C22.4012 15.4871 22.5 15.2486 22.5 15C22.5 14.7514 22.4012 14.5129 22.2254 14.3371C22.0496 14.1613 21.8111 14.0625 21.5625 14.0625H10.7006L14.7263 10.0388C14.9023 9.86271 15.0012 9.62395 15.0012 9.375C15.0012 9.12605 14.9023 8.88729 14.7263 8.71125C14.5502 8.53521 14.3115 8.43632 14.0625 8.43632C13.8135 8.43632 13.5748 8.53521 13.3988 8.71125L7.77375 14.3363C7.68644 14.4233 7.61718 14.5268 7.56991 14.6407C7.52265 14.7546 7.49832 14.8767 7.49832 15C7.49832 15.1233 7.52265 15.2454 7.56991 15.3593C7.61718 15.4732 7.68644 15.5767 7.77375 15.6638L13.3988 21.2888C13.5748 21.4648 13.8135 21.5637 14.0625 21.5637C14.3115 21.5637 14.5502 21.4648 14.7263 21.2888C14.9023 21.1127 15.0012 20.874 15.0012 20.625C15.0012 20.376 14.9023 20.1373 14.7263 19.9613L10.7006 15.9375H21.5625Z" fill="white"/>
</g>
<defs>
<clipPath id="clip0_144_959">
<rect width="30" height="30" fill="white"/>
</clipPath>
</defs>
</svg>
