<svg width="143" height="139" viewBox="0 0 143 139" fill="none" xmlns="http://www.w3.org/2000/svg">
<path d="M126.198 111.988C130.212 109.034 131.068 103.397 128.115 99.384C125.161 95.3705 119.524 94.5137 115.511 97.4674L88.5214 117.354H61.3291C59.345 117.354 57.7215 115.731 57.7215 113.747C57.7215 111.763 59.345 110.139 61.3291 110.139H79.3671C83.358 110.139 86.5823 106.915 86.5823 102.924C86.5823 98.933 83.358 95.7087 79.3671 95.7087H43.6745C37.1131 95.7087 30.7548 97.9409 25.6365 102.022L15.5127 110.139H7.21519C3.22429 110.139 0 113.363 0 117.354V131.785C0 135.776 3.22429 139 7.21519 139H79.4799C86.0186 139 92.3996 136.903 97.6757 133.025L126.221 111.988H126.198ZM43.6519 110.117C43.6627 110.132 43.6695 110.149 43.6718 110.168C43.6741 110.186 43.6718 110.205 43.6651 110.222C43.6584 110.24 43.6476 110.255 43.6335 110.267C43.6194 110.279 43.6025 110.288 43.5844 110.292C43.5662 110.296 43.5474 110.295 43.5295 110.29C43.5116 110.285 43.4952 110.276 43.4818 110.263C43.4684 110.25 43.4584 110.234 43.4527 110.216C43.4469 110.199 43.4457 110.18 43.449 110.162C43.4382 110.147 43.4314 110.129 43.4291 110.11C43.4268 110.092 43.4291 110.073 43.4358 110.056C43.4425 110.039 43.4533 110.023 43.4674 110.011C43.4815 109.999 43.4984 109.99 43.5165 109.986C43.5347 109.982 43.5535 109.983 43.5714 109.988C43.5893 109.993 43.6057 110.002 43.6191 110.015C43.6325 110.028 43.6425 110.044 43.6482 110.062C43.654 110.079 43.6552 110.098 43.6519 110.117Z" fill="#FFCD39"/>
<path d="M94.5773 11.9636C116.511 11.9636 134.456 26.2402 134.456 43.8666C134.456 61.493 116.511 75.7696 94.5773 75.7696C89.6324 75.7696 84.8868 75.0517 80.5001 73.7756C68.8555 83.7453 54.6986 83.7453 54.6986 83.7453C63.9903 74.4536 65.4659 68.1926 65.6653 65.7999C58.8859 60.0972 54.6986 52.3608 54.6986 43.8666C54.6986 26.2402 72.644 11.9636 94.5773 11.9636Z" fill="#106EE8"/>
</svg>
