<svg width="518" height="139" viewBox="0 0 518 139" fill="none" xmlns="http://www.w3.org/2000/svg">
<path d="M126.198 111.988C130.212 109.034 131.068 103.397 128.115 99.384C125.161 95.3705 119.524 94.5137 115.511 97.4674L88.5214 117.354H61.3291C59.345 117.354 57.7215 115.731 57.7215 113.747C57.7215 111.763 59.345 110.139 61.3291 110.139H79.3671C83.358 110.139 86.5823 106.915 86.5823 102.924C86.5823 98.933 83.358 95.7087 79.3671 95.7087H43.6745C37.1131 95.7087 30.7548 97.9409 25.6365 102.022L15.5127 110.139H7.21519C3.22429 110.139 0 113.363 0 117.354V131.785C0 135.776 3.22429 139 7.21519 139H79.4799C86.0186 139 92.3996 136.903 97.6757 133.025L126.221 111.988H126.198ZM43.6519 110.117C43.6627 110.132 43.6695 110.149 43.6718 110.168C43.6741 110.186 43.6718 110.205 43.6651 110.222C43.6584 110.24 43.6476 110.255 43.6335 110.267C43.6194 110.279 43.6025 110.288 43.5844 110.292C43.5662 110.296 43.5474 110.295 43.5295 110.29C43.5116 110.285 43.4952 110.276 43.4818 110.263C43.4684 110.25 43.4584 110.234 43.4527 110.216C43.4469 110.199 43.4457 110.18 43.449 110.162C43.4382 110.147 43.4314 110.129 43.4291 110.11C43.4268 110.092 43.4291 110.073 43.4358 110.056C43.4425 110.039 43.4533 110.023 43.4674 110.011C43.4815 109.999 43.4984 109.99 43.5165 109.986C43.5347 109.982 43.5535 109.983 43.5714 109.988C43.5893 109.993 43.6057 110.002 43.6191 110.015C43.6325 110.028 43.6425 110.044 43.6482 110.062C43.654 110.079 43.6552 110.098 43.6519 110.117Z" fill="#FFCD39"/>
<path d="M94.5773 11.9636C116.511 11.9636 134.456 26.2402 134.456 43.8666C134.456 61.493 116.511 75.7696 94.5773 75.7696C89.6324 75.7696 84.8868 75.0517 80.5001 73.7756C68.8555 83.7453 54.6986 83.7453 54.6986 83.7453C63.9903 74.4536 65.4659 68.1926 65.6653 65.7999C58.8859 60.0972 54.6986 52.3608 54.6986 43.8666C54.6986 26.2402 72.644 11.9636 94.5773 11.9636Z" fill="#106EE8"/>
<path d="M198.271 68.3233C198.075 66.3507 197.236 64.8184 195.752 63.7261C194.269 62.6339 192.256 62.0878 189.712 62.0878C187.984 62.0878 186.525 62.3323 185.335 62.8214C184.145 63.2941 183.232 63.9544 182.597 64.8021C181.977 65.6498 181.667 66.6116 181.667 67.6875C181.635 68.5841 181.822 69.3666 182.23 70.035C182.654 70.7034 183.232 71.2821 183.966 71.7711C184.7 72.2439 185.547 72.6596 186.509 73.0182C187.471 73.3606 188.498 73.654 189.59 73.8985L194.089 74.9745C196.274 75.4635 198.279 76.1156 200.105 76.9307C201.931 77.7458 203.512 78.7483 204.849 79.9384C206.186 81.1284 207.221 82.5304 207.954 84.1443C208.704 85.7582 209.087 87.6084 209.104 89.6951C209.087 92.7598 208.305 95.417 206.756 97.6667C205.224 99.9001 203.007 101.636 200.105 102.875C197.219 104.098 193.739 104.709 189.664 104.709C185.621 104.709 182.099 104.09 179.1 102.851C176.117 101.612 173.785 99.7778 172.106 97.3488C170.444 94.9035 169.571 91.8795 169.49 88.2768H179.736C179.85 89.9559 180.331 91.3579 181.178 92.4827C182.042 93.5912 183.192 94.4308 184.626 95.0013C186.077 95.5556 187.715 95.8327 189.541 95.8327C191.334 95.8327 192.891 95.5719 194.212 95.0503C195.549 94.5286 196.584 93.8032 197.317 92.8739C198.051 91.9447 198.418 90.877 198.418 89.6706C198.418 88.5458 198.083 87.6003 197.415 86.8341C196.763 86.0679 195.801 85.4158 194.53 84.8779C193.274 84.3399 191.734 83.8508 189.908 83.4107L184.455 82.0413C180.233 81.0143 176.899 79.4086 174.454 77.2241C172.009 75.0397 170.794 72.0972 170.81 68.3966C170.794 65.3645 171.601 62.7154 173.231 60.4495C174.878 58.1835 177.136 56.4147 180.005 55.1432C182.874 53.8716 186.134 53.2359 189.786 53.2359C193.503 53.2359 196.747 53.8716 199.518 55.1432C202.306 56.4147 204.474 58.1835 206.022 60.4495C207.571 62.7154 208.37 65.34 208.419 68.3233H198.271ZM225.363 104.709C222.967 104.709 220.831 104.293 218.956 103.462C217.082 102.614 215.598 101.367 214.506 99.7207C213.43 98.058 212.892 95.9876 212.892 93.5097C212.892 91.4231 213.275 89.6706 214.041 88.2524C214.807 86.8341 215.851 85.693 217.171 84.829C218.492 83.965 219.992 83.3129 221.671 82.8727C223.366 82.4326 225.143 82.1228 227.001 81.9435C229.186 81.7153 230.946 81.5034 232.283 81.3077C233.62 81.0958 234.59 80.7861 235.193 80.3785C235.796 79.971 236.098 79.3678 236.098 78.569V78.4223C236.098 76.8736 235.609 75.6754 234.631 74.8277C233.669 73.98 232.299 73.5562 230.523 73.5562C228.648 73.5562 227.156 73.9719 226.048 74.8033C224.939 75.6184 224.206 76.6454 223.847 77.8843L214.212 77.1019C214.702 74.8196 215.663 72.8471 217.098 71.1843C218.532 69.5052 220.383 68.2173 222.649 67.3207C224.931 66.4078 227.572 65.9514 230.571 65.9514C232.658 65.9514 234.655 66.1959 236.562 66.6849C238.486 67.174 240.19 67.932 241.673 68.959C243.173 69.9861 244.355 71.3065 245.219 72.9204C246.083 74.518 246.515 76.4335 246.515 78.6668V104H236.636V98.7915H236.342C235.739 99.9653 234.932 101 233.921 101.897C232.911 102.777 231.696 103.47 230.278 103.976C228.86 104.465 227.221 104.709 225.363 104.709ZM228.346 97.52C229.879 97.52 231.232 97.2184 232.405 96.6152C233.579 95.9958 234.5 95.1644 235.169 94.121C235.837 93.0777 236.171 91.8958 236.171 90.5754V86.5896C235.845 86.8015 235.397 86.9971 234.826 87.1764C234.272 87.3395 233.644 87.4943 232.943 87.641C232.242 87.7715 231.541 87.8937 230.84 88.0078C230.139 88.1056 229.504 88.1953 228.933 88.2768C227.71 88.4561 226.643 88.7414 225.73 89.1327C224.817 89.5239 224.108 90.0537 223.602 90.7221C223.097 91.3742 222.844 92.1893 222.844 93.1674C222.844 94.5856 223.358 95.6697 224.385 96.4196C225.428 97.1532 226.749 97.52 228.346 97.52ZM273.417 66.4404V74.2653H250.236V66.4404H273.417ZM255.542 104V63.7261C255.542 61.0037 256.072 58.7459 257.132 56.9527C258.208 55.1595 259.675 53.8146 261.533 52.918C263.392 52.0214 265.503 51.5731 267.866 51.5731C269.464 51.5731 270.923 51.6953 272.244 51.9399C273.58 52.1844 274.575 52.4045 275.227 52.6001L273.368 60.425C272.961 60.2946 272.455 60.1723 271.852 60.0582C271.265 59.9441 270.662 59.887 270.043 59.887C268.51 59.887 267.443 60.2457 266.839 60.963C266.236 61.6639 265.935 62.6502 265.935 63.9218V104H255.542ZM294.176 104.734C290.312 104.734 286.987 103.951 284.199 102.386C281.428 100.805 279.292 98.5715 277.793 95.686C276.293 92.7843 275.543 89.3527 275.543 85.3914C275.543 81.5278 276.293 78.137 277.793 75.219C279.292 72.3009 281.403 70.0268 284.126 68.3966C286.865 66.7664 290.076 65.9514 293.76 65.9514C296.238 65.9514 298.545 66.3507 300.68 67.1495C302.832 67.932 304.707 69.1139 306.305 70.6952C307.919 72.2765 309.174 74.2653 310.07 76.6617C310.967 79.0418 311.415 81.8294 311.415 85.0246V87.8856H279.7V81.43H301.61C301.61 79.9302 301.284 78.6016 300.632 77.4442C299.979 76.2868 299.075 75.382 297.917 74.7299C296.776 74.0615 295.448 73.7274 293.931 73.7274C292.35 73.7274 290.948 74.0942 289.726 74.8277C288.519 75.545 287.574 76.515 286.889 77.7376C286.204 78.944 285.854 80.2889 285.838 81.7723V87.91C285.838 89.7684 286.18 91.3742 286.865 92.7272C287.566 94.0803 288.552 95.1236 289.823 95.8572C291.095 96.5908 292.603 96.9576 294.347 96.9576C295.505 96.9576 296.564 96.7946 297.526 96.4685C298.488 96.1425 299.311 95.6534 299.996 95.0013C300.68 94.3493 301.202 93.5505 301.561 92.605L311.195 93.2407C310.706 95.5556 309.704 97.577 308.188 99.3051C306.688 101.017 304.748 102.354 302.368 103.315C300.004 104.261 297.273 104.734 294.176 104.734ZM344.199 68.3233C344.003 66.3507 343.164 64.8184 341.68 63.7261C340.197 62.6339 338.183 62.0878 335.64 62.0878C333.912 62.0878 332.453 62.3323 331.263 62.8214C330.073 63.2941 329.16 63.9544 328.524 64.8021C327.905 65.6498 327.595 66.6116 327.595 67.6875C327.563 68.5841 327.75 69.3666 328.158 70.035C328.582 70.7034 329.16 71.2821 329.894 71.7711C330.627 72.2439 331.475 72.6596 332.437 73.0182C333.399 73.3606 334.426 73.654 335.518 73.8985L340.017 74.9745C342.202 75.4635 344.207 76.1156 346.033 76.9307C347.859 77.7458 349.44 78.7483 350.777 79.9384C352.113 81.1284 353.148 82.5304 353.882 84.1443C354.632 85.7582 355.015 87.6084 355.031 89.6951C355.015 92.7598 354.233 95.417 352.684 97.6667C351.152 99.9001 348.934 101.636 346.033 102.875C343.147 104.098 339.667 104.709 335.591 104.709C331.548 104.709 328.027 104.09 325.028 102.851C322.044 101.612 319.713 99.7778 318.034 97.3488C316.371 94.9035 315.499 91.8795 315.418 88.2768H325.663C325.778 89.9559 326.259 91.3579 327.106 92.4827C327.97 93.5912 329.119 94.4308 330.554 95.0013C332.005 95.5556 333.643 95.8327 335.469 95.8327C337.262 95.8327 338.819 95.5719 340.14 95.0503C341.476 94.5286 342.512 93.8032 343.245 92.8739C343.979 91.9447 344.345 90.877 344.345 89.6706C344.345 88.5458 344.011 87.6003 343.343 86.8341C342.691 86.0679 341.729 85.4158 340.457 84.8779C339.202 84.3399 337.662 83.8508 335.836 83.4107L330.383 82.0413C326.161 81.0143 322.827 79.4086 320.382 77.2241C317.936 75.0397 316.722 72.0972 316.738 68.3966C316.722 65.3645 317.529 62.7154 319.159 60.4495C320.806 58.1835 323.063 56.4147 325.932 55.1432C328.802 53.8716 332.062 53.2359 335.714 53.2359C339.43 53.2359 342.675 53.8716 345.446 55.1432C348.233 56.4147 350.402 58.1835 351.95 60.4495C353.499 62.7154 354.298 65.34 354.347 68.3233H344.199ZM360.58 118.085V66.4404H370.851V72.7492H371.315C371.772 71.7385 372.432 70.7115 373.296 69.6682C374.176 68.6086 375.317 67.7283 376.719 67.0273C378.138 66.31 379.898 65.9514 382.001 65.9514C384.74 65.9514 387.267 66.6686 389.582 68.1032C391.896 69.5215 393.747 71.6652 395.132 74.5343C396.518 77.3871 397.211 80.9654 397.211 85.2691C397.211 89.4587 396.534 92.9962 395.181 95.8817C393.844 98.7508 392.019 100.927 389.704 102.411C387.405 103.878 384.83 104.611 381.977 104.611C379.955 104.611 378.235 104.277 376.817 103.609C375.415 102.94 374.266 102.101 373.369 101.09C372.473 100.063 371.788 99.0279 371.315 97.9846H370.997V118.085H360.58ZM370.777 85.2202C370.777 87.4536 371.087 89.4016 371.706 91.0644C372.326 92.7272 373.223 94.0232 374.396 94.9524C375.57 95.8653 376.996 96.3218 378.676 96.3218C380.371 96.3218 381.806 95.8572 382.979 94.928C384.153 93.9825 385.041 92.6783 385.645 91.0155C386.264 89.3364 386.574 87.4047 386.574 85.2202C386.574 83.052 386.272 81.1447 385.669 79.4982C385.066 77.8517 384.177 76.5639 383.004 75.6347C381.83 74.7055 380.387 74.2409 378.676 74.2409C376.98 74.2409 375.546 74.6892 374.372 75.5858C373.214 76.4824 372.326 77.7539 371.706 79.4004C371.087 81.0469 370.777 82.9868 370.777 85.2202ZM419.895 104.734C416.032 104.734 412.706 103.951 409.918 102.386C407.147 100.805 405.012 98.5715 403.512 95.686C402.012 92.7843 401.262 89.3527 401.262 85.3914C401.262 81.5278 402.012 78.137 403.512 75.219C405.012 72.3009 407.123 70.0268 409.845 68.3966C412.584 66.7664 415.795 65.9514 419.48 65.9514C421.957 65.9514 424.264 66.3507 426.4 67.1495C428.552 67.932 430.426 69.1139 432.024 70.6952C433.638 72.2765 434.893 74.2653 435.79 76.6617C436.686 79.0418 437.135 81.8294 437.135 85.0246V87.8856H405.419V81.43H427.329C427.329 79.9302 427.003 78.6016 426.351 77.4442C425.699 76.2868 424.794 75.382 423.637 74.7299C422.495 74.0615 421.167 73.7274 419.651 73.7274C418.069 73.7274 416.667 74.0942 415.445 74.8277C414.239 75.545 413.293 76.515 412.608 77.7376C411.924 78.944 411.573 80.2889 411.557 81.7723V87.91C411.557 89.7684 411.899 91.3742 412.584 92.7272C413.285 94.0803 414.271 95.1236 415.543 95.8572C416.814 96.5908 418.322 96.9576 420.066 96.9576C421.224 96.9576 422.283 96.7946 423.245 96.4685C424.207 96.1425 425.03 95.6534 425.715 95.0013C426.4 94.3493 426.921 93.5505 427.28 92.605L436.914 93.2407C436.425 95.5556 435.423 97.577 433.907 99.3051C432.407 101.017 430.467 102.354 428.087 103.315C425.723 104.261 422.993 104.734 419.895 104.734ZM453.266 104.709C450.869 104.709 448.734 104.293 446.859 103.462C444.984 102.614 443.501 101.367 442.409 99.7207C441.333 98.058 440.795 95.9876 440.795 93.5097C440.795 91.4231 441.178 89.6706 441.944 88.2524C442.71 86.8341 443.753 85.693 445.074 84.829C446.394 83.965 447.894 83.3129 449.573 82.8727C451.269 82.4326 453.046 82.1228 454.904 81.9435C457.088 81.7153 458.849 81.5034 460.186 81.3077C461.523 81.0958 462.492 80.7861 463.096 80.3785C463.699 79.971 464 79.3678 464 78.569V78.4223C464 76.8736 463.511 75.6754 462.533 74.8277C461.571 73.98 460.202 73.5562 458.425 73.5562C456.55 73.5562 455.059 73.9719 453.95 74.8033C452.842 75.6184 452.108 76.6454 451.75 77.8843L442.115 77.1019C442.604 74.8196 443.566 72.8471 445.001 71.1843C446.435 69.5052 448.285 68.2173 450.551 67.3207C452.834 66.4078 455.475 65.9514 458.474 65.9514C460.561 65.9514 462.558 66.1959 464.465 66.6849C466.389 67.174 468.092 67.932 469.576 68.959C471.075 69.9861 472.257 71.3065 473.121 72.9204C473.985 74.518 474.417 76.4335 474.417 78.6668V104H464.538V98.7915H464.245C463.642 99.9653 462.835 101 461.824 101.897C460.813 102.777 459.599 103.47 458.181 103.976C456.762 104.465 455.124 104.709 453.266 104.709ZM456.249 97.52C457.781 97.52 459.134 97.2184 460.308 96.6152C461.482 95.9958 462.403 95.1644 463.071 94.121C463.74 93.0777 464.074 91.8958 464.074 90.5754V86.5896C463.748 86.8015 463.299 86.9971 462.729 87.1764C462.175 87.3395 461.547 87.4943 460.846 87.641C460.145 87.7715 459.444 87.8937 458.743 88.0078C458.042 88.1056 457.406 88.1953 456.836 88.2768C455.613 88.4561 454.545 88.7414 453.632 89.1327C452.719 89.5239 452.01 90.0537 451.505 90.7221C451 91.3742 450.747 92.1893 450.747 93.1674C450.747 94.5856 451.26 95.6697 452.287 96.4196C453.331 97.1532 454.651 97.52 456.249 97.52ZM490.561 93.1918L490.585 80.6964H492.101L504.132 66.4404H516.089L499.926 85.318H497.456L490.561 93.1918ZM481.122 104V53.9205H491.539V104H481.122ZM504.597 104L493.544 87.641L500.488 80.2807L516.799 104H504.597Z" fill="#106EE8"/>
</svg>
